Coordinates
nRows=136
nColumns=3

# SIMM Motion File Header:
name Coordinates
datacolumns 3
datarows 136
otherdata 1
range 0.00000000000000000000 0.23855102999999941000
endheader
time	r_shoulder_elev	r_elbow_flex
      0.00000000000000000000	      0.00000000000000000000	      0.00000000000000000000
      0.00000001000000000000	     -0.00000000000002550487	      0.00000000000009132876
      0.00000003000000000000	     -0.00000000000022954383	      0.00000000000082195871
      0.00000007000000000000	     -0.00000000000124973856	      0.00000000000447510827
      0.00000015000000000000	     -0.00000000000573859530	      0.00000000002054896608
      0.00000031000000000000	     -0.00000000002451017779	      0.00000000008776691621
      0.00000063000000000000	     -0.00000000010122881829	      0.00000000036248375283
      0.00000127000000000000	     -0.00000000041136799680	      0.00000000147304115892
      0.00000255000000000000	     -0.00000000165845391145	      0.00000000593865081295
      0.00000511000000000000	     -0.00000000665985576613	      0.00000002384784895826
      0.00001023000000000000	     -0.00000002669157881416	      0.00000009557815931905
      0.00002047000000000000	     -0.00000010687071014805	      0.00000038268647332479
      0.00004095000000000000	     -0.00000042769199882047	      0.00000153149492056492
      0.00008191000000000001	     -0.00000171119245580762	      0.00000612749928224058
      0.00016383000000000001	     -0.00000684572524335504	      0.00002451340291539297
      0.00032767000000000001	     -0.00002738653319325710	      0.00009806631373559338
      0.00065535000000000007	     -0.00010957943373138630	      0.00039237987180424245
      0.00131071000000000010	     -0.00043874418166019901	      0.00157099271763041430
      0.00262143000000000010	     -0.00176009058059248490	      0.00630198227117616160
      0.00393215000000000060	     -0.00397393432194060190	      0.01422924283697549000
      0.00524287000000000020	     -0.00708936483480289690	      0.02538881760819700400
      0.00655358999999999980	     -0.01111310130795233600	      0.03981096578161856500
      0.00917503000000000070	     -0.02189939037405813600	      0.07852933581067971000
      0.01179647000000000000	     -0.03633781137148558300	      0.13049463279030599000
      0.01441790999999999900	     -0.05440526782376723500	      0.19573979574796488000
      0.01703934999999999800	     -0.07606011508899679400	      0.27424677590877578000
      0.01966078999999999700	     -0.10124847204011017000	      0.36596411442653409000
      0.02490366999999999600	     -0.16197583161862747000	      0.58872999978993668000
      0.02752510999999999500	     -0.19738257073076956000	      0.71960764632882757000
      0.03014654999999999400	     -0.23606189260867172000	      0.86336355757443950000
      0.03538942999999999300	     -0.32298067271368980000	      1.18917812186995750000
      0.03801086999999999500	     -0.37110152812743319000	      1.37109535528479710000
      0.04063230999999999800	     -0.42225867923471544000	      1.56560945119277690000
      0.04325375000000000100	     -0.47640480765793058000	      1.77267706264342890000
      0.04587519000000000300	     -0.53349784982285831000	      1.99226661459153710000
      0.04849663000000000600	     -0.59350013417217129000	      2.22435519569690140000
      0.05111807000000000900	     -0.65637819007021381000	      2.46892749628455380000
      0.05373951000000001100	     -0.72210331720774135000	      2.72597746547143990000
      0.05636095000000001400	     -0.79065075233991222000	      2.99550552275426620000
      0.05898239000000001600	     -0.86199944323994904000	      3.27751740253498670000
      0.06160383000000001900	     -0.93613184745549050000	      3.57202362492505370000
      0.06422527000000001500	     -1.01303382477654870000	      3.87903904304450230000
      0.06684671000000001800	     -1.09269411613628130000	      4.19858086097457760000
      0.06946815000000002000	     -1.17510376207649350000	      4.53066703778542830000
      0.07208959000000002300	     -1.26025616884162960000	      4.87531656366512860000
      0.07471103000000002500	     -1.34814641910805460000	      5.23254705290238590000
      0.07733247000000002800	     -1.43877087788556060000	      5.60237369866769620000
      0.07995391000000003100	     -1.53212641908072960000	      5.98480726494828730000
      0.08257535000000003300	     -1.62820992056331690000	      6.37985243466311220000
      0.08519679000000003600	     -1.72701725938394390000	      6.78750495924200430000
      0.08781823000000003900	     -1.82854258270446040000	      7.20774991478755210000
      0.09043967000000004100	     -1.93277749796723900000	      7.64055939469634640000
      0.09306111000000004400	     -2.03971134509055970000	      8.08589336530863000000
      0.09568255000000004700	     -2.14932970248841040000	      8.54369577631430670000
      0.09830399000000004900	     -2.26161541808207240000	      9.01389767837396330000
      0.10092543000000005000	     -2.37654769158140810000	      9.49641500219857630000
      0.10354687000000005000	     -2.49410009692709030000	      9.99114285874208010000
      0.10616831000000006000	     -2.61424052211531910000	     10.49795520262260100000
      0.10878975000000006000	     -2.73693022125589010000	     11.01670292700879900000
      0.11141119000000006000	     -2.86212458282391500000	     11.54721665193225100000
      0.11403263000000007000	     -2.98977189642763590000	     12.08930398660026400000
      0.11665407000000007000	     -3.11981381020752610000	     12.64275146077663300000
      0.11927551000000007000	     -3.25218476683287070000	     13.20732326982867200000
      0.12189695000000007000	     -3.38681314906719780000	     13.78276484375081500000
      0.12451839000000008000	     -3.52362156742753200000	     14.36880381114621500000
      0.12713983000000006000	     -3.66252659695633390000	     14.96514932208948800000
      0.12976127000000007000	     -3.80343877377980810000	     15.57149210934563600000
      0.13238271000000007000	     -3.94626272382117760000	     16.18750491235531900000
      0.13500415000000007000	     -4.09089669381551160000	     16.81284114470268800000
      0.13762559000000008000	     -4.23723314709234430000	     17.44713665555197200000
      0.14024703000000008000	     -4.38515876181449650000	     18.09000975634557700000
      0.14286847000000008000	     -4.53455467051588370000	     18.74106193396852400000
      0.14548991000000008000	     -4.68529639979586140000	     19.39987767432661800000
      0.14680063000000007000	     -4.76113189062435000000	     19.73206349321558800000
      0.14811135000000006000	     -4.83725496975695450000	     20.06602769531249600000
      0.15073279000000006000	     -4.99029635370783890000	     20.73906722868211000000
      0.15335423000000006000	     -5.14428272680124100000	     21.41854003711481600000
      0.15466495000000005000	     -5.22158603398806510000	     21.76054250220368400000
      0.15597567000000004000	     -5.29907227596287010000	     22.10397707159869200000
      0.15859711000000004000	     -5.45452041159359260000	     22.79490089508245300000
      0.16121855000000004000	     -5.61047977456016510000	     23.49082515833896400000
      0.16252927000000003000	     -5.68860433415595250000	     23.84050778025726600000
      0.16383999000000002000	     -5.76680045385192750000	     24.19125485260988400000
      0.16646143000000002000	     -5.92333129303496000000	     24.89569088668548200000
      0.16908287000000002000	     -6.07991985804211850000	     25.60362935142002200000
      0.17039359000000001000	     -6.15818796921170010000	     25.95875364397121700000
      0.17170431000000000000	     -6.23641324924622430000	     26.31456381973702800000
      0.17432575000000000000	     -6.39265885925955320000	     27.02798778221952200000
      0.17694719000000000000	     -6.54850473976380960000	     27.74339539748893200000
      0.17825790999999999000	     -6.62623075097336670000	     28.10168610270684300000
      0.17956862999999998000	     -6.70380054443542320000	     28.46028448102087400000
      0.18087934999999997000	     -6.78119552661355040000	     28.81912816243062300000
      0.18219006999999995000	     -6.85839731039788080000	     29.17815525160537900000
      0.18350078999999994000	     -6.93538766225366030000	     29.53730421477998300000
      0.18481150999999993000	     -7.01214852260264630000	     29.89651393560797000000
      0.18612222999999992000	     -7.08866197910775320000	     30.25572363329957100000
      0.18743294999999990000	     -7.16491033661608510000	     30.61487306882020900000
      0.18874366999999989000	     -7.24087609621005070000	     30.97390248156525800000
      0.19005438999999988000	     -7.31654196358449300000	     31.33275261202331300000
      0.19136510999999987000	     -7.39189085500018270000	     31.69136471679929900000
      0.19267582999999985000	     -7.46690597795632010000	     32.04968080541065900000
      0.19398654999999984000	     -7.54157079058066590000	     32.40764351757736300000
      0.19529726999999983000	     -7.61587024705420210000	     32.76519982911970900000
      0.19660798999999982000	     -7.68978857867057730000	     33.12229445708130300000
      0.19791870999999980000	     -7.76330941746628240000	     33.47887021022423700000
      0.19922942999999979000	     -7.83641693346107540000	     33.83487137647695400000
      0.20054014999999978000	     -7.90909580704243890000	     34.19024364279066200000
      0.20185086999999977000	     -7.98133112277548130000	     34.54493379649272800000
      0.20316158999999975000	     -8.05310834978406480000	     34.89888969046626200000
      0.20447230999999974000	     -8.12441334001856320000	     35.25206025428973100000
      0.20578302999999973000	     -8.19523234889711460000	     35.60439556367644100000
      0.20709374999999972000	     -8.26555205129384870000	     35.95584689004564200000
      0.20840446999999970000	     -8.33535955157713280000	     36.30636672862590300000
      0.20971518999999969000	     -8.40464239272024290000	     36.65590882179908000000
      0.21102590999999968000	     -8.47338861353576080000	     37.00442832767281200000
      0.21233662999999967000	     -8.54158687044983010000	     37.35188218640782800000
      0.21364734999999965000	     -8.60922644066572570000	     37.69822913090406800000
      0.21495806999999964000	     -8.67629720062567240000	     38.04342962142577300000
      0.21626878999999963000	     -8.74278959469494230000	     38.38744574944230700000
      0.21757950999999962000	     -8.80869460526099780000	     38.73024114484217500000
      0.21889022999999960000	     -8.87400366116116680000	     39.07178069674844100000
      0.22020094999999959000	     -8.93870841645796150000	     39.41202988180420900000
      0.22151166999999958000	     -9.00280061853398190000	     39.75095435927691800000
      0.22282238999999956000	     -9.06627213654153330000	     40.08852004985436000000
      0.22413310999999955000	     -9.12911498955161700000	     40.42469321527981700000
      0.22544382999999954000	     -9.19132137717406120000	     40.75944054709039200000
      0.22675454999999953000	     -9.25288370451830570000	     41.09272923966944500000
      0.22806526999999951000	     -9.31379459514239190000	     41.42452702762177800000
      0.22937598999999950000	     -9.37404689941538650000	     41.75480220969905100000
      0.23068670999999949000	     -9.43363371096557480000	     42.08352369834131700000
      0.23199742999999948000	     -9.49254838245093420000	     42.41066106829909200000
      0.23330814999999946000	     -9.55078453988436140000	     42.73618460178928300000
      0.23461886999999945000	     -9.60833609419412230000	     43.06006532594859200000
      0.23592958999999944000	     -9.66519724338503390000	     43.38227502137030500000
      0.23724030999999943000	     -9.72136245999066520000	     43.70278618418930000000
      0.23855102999999941000	     -9.77682649296056640000	     44.02157203251190500000
